<svg xmlns="http://www.w3.org/2000/svg" viewBox="0 0 109.41 168.19">
    <defs>
        <style>
            .d{fill:#003264;fill-rule:evenodd}
        </style>
    </defs>
    <g id="b">
        <g id="c">
            <path class="d" d="m61.95 88.13-2.37 2.43c3.29.04 5.14.02 8.37.78 17.47 4.13 27.41 22.4 21.5 38.82-5.05 14.09-19.25 22.21-33.87 19.4-2.27-.44-4.76-1.28-6.9-2.27-12.23-5.96-16.04-15.37-17.11-28.69-3.69 4.45-7.42 6.46-10.24 14.47-.78 2.22-.27 2.64.65 4.72a49.66 49.66 0 0 0 2.1 4.11c1.72 2.96 3.42 4.76 5.22 7.3l-2.79 4.15 4.97 4.61 4.09-3.08 3.54 2.52-1.38 4.74 6.19 3 2.73-4.26 4.22 1.3.08 5.24 6.73.76 1.47-4.78 4.4.02 1.51 4.74 6.73-.94.06-5.05 4.22-1.2 2.94 4.17 6.02-2.98-1.51-4.82 3.67-2.52 4.03 3.04 4.97-4.47-2.77-4.17 2.83-3.5 4.55 1.87 3.5-5.89-3.84-3.17 1.61-4.17 5.18.36 1.47-6.35-4.66-1.99.38-4.53 4.97-1.43-.34-6.61-5.12-.25-.99-4.7 4.4-2.41-2.52-6.27-4.8 1.09-2.45-4.19 3.38-3.63-3.63-5.12-4.74 2.37-3.5-3.4 2.08-4.34-5.43-3.78-3.44 3.54-4.32-2.03.61-5.03-5.16-1.57c-.94 1.17-1.66 2.64-2.58 3.9-2.66 3.54-5.64 7.13-8.91 10.15z"/>
            <path class="d" d="M61.72 113.68c.06-.44.1-.99.02-1.53l-2.12-.02c-1.09 4.72-5.12 7.32-9.59 4.09-.88-6.33 6.23-9.4 9.25-8.03 1.03.29 2.29.82 3.02 1.47 1.36-.29 1.3.21 2.81-.65 1.8-1.68 1.32-3.42-.27-4.89 10.38-.61 18.77 22.53 11.41 24.1-5.56 1.15-12.27-4.03-14.47-4.89-2.58 9.06-6 8.85-13.49 7.22-1.05 3.46-1.01 5.08-6.23 7.42.52.84 2.1 1.97 3.06 2.37 1.89-.27 4.4-3.78 5.35-5.47 7.32.52 9.88-1.07 13.13-5.56 3.92 1.36 10.74 5.14 15.84 1.87 4.45-2.85 3.75-11.22 2.27-15.69-1.7-5.08-4.47-8.56-8.26-11.89-3.61-3.17-10.86-5.79-13.91-.65-2.54.02-3.15-.44-5.73.71-8.77 3.92-8.2 13.3-6.54 14.6 4.99 3.94 13.26 2.71 14.45-4.57z"/>
            <path class="d" d="M68.98 111.43c-.44-.73-2.1-.99-2.94-.31-.44.36-.67 1.57-.38 2.12 1.17 2.24 4.95.9 3.31-1.8zM2.51 108.22c-3.73-21.16 31.4-45.34 44.93-60.15C61.58 33.39 76.28 22.78 71.54 0 68.03 31.38-15.38 68.04 2.51 108.22z"/>
            <path class="d" d="M71.37 23.07c-3.5 31.38-92.14 73.89-62.82 107.89-9.73-21.16 27.14-46.2 40.67-61.01 14.14-14.7 26.72-22.04 22.15-46.88z"/>
            <path class="d" d="M71.47 47.11c-3.5 31.38-92.3 73.07-50.99 98.64-14.77-18.73 12.06-33.73 32.36-55.94 16.4-17.03 20.95-19.9 18.62-42.7z"/>
        </g>
    </g>
</svg>
