<svg id="Capa_1" data-name="Capa 1" xmlns="http://www.w3.org/2000/svg" viewBox="0 0 1268.98 369.45"><defs><style>.cls-1{fill:#003865;}.cls-2{fill:#f8a900;}</style></defs><path class="cls-1" d="M58.52,177.74c.13-8.1,3-14.56,8.76-18.17,5.2-3.23,7.35-7.61,9.28-12.65q16.38-42.58,32.71-85.2c2.22-5.8,4.49-11.6,6.45-17.49,1.27-3.79,2.82-5.93,7.55-5.73,10.68.46,21.39.14,32.67.14-8.2,33.09-16.31,65.8-24.61,99.31,18-4.13,35.16-8,52.23-12.1.92-.23,2.17-2.7,1.9-3.79-6.18-25.44-12.55-50.82-18.86-76.22-.55-2.2-.92-4.46-1.47-7.19,12,0,23.85-.09,35.69.15,1.15,0,2.79,1.92,3.32,3.29,8.75,22.37,17.36,44.79,26.19,67.67,8.47-4.14,15.18-9.94,19.83-18.64a20.68,20.68,0,0,1-3,21.75c-9.24,10.72-22.07,14.87-34.79,18.43-24.55,6.87-49.38,12.77-74.16,18.82-22.88,5.59-46.09,10-67.57,20.19C66.68,172.18,63.13,174.88,58.52,177.74Z"/><path class="cls-1" d="M300.67,293c-7.36-1.28-14.09-2.56-20.87-3.62-10.54-1.64-21.1-3.22-31.68-4.65-6.37-.86-12.85-1.08-19.15-2.27-1.77-.34-4-2.86-4.48-4.78-4-15.19-7.53-30.49-11.3-45.73-2.55-10.31-5.24-20.58-7.82-30.7l52.86-18.74C272,218.27,286.18,255.32,300.67,293Z"/><path class="cls-1" d="M29.7,258.09c0-3.06-.36-6.18.06-9.19,2.27-16.11,12.81-26.43,25.72-34.38,19.37-11.93,41.27-17.14,63.15-22.27,17.84-4.18,35.68-8.4,53.39-13.08,20.71-5.48,41.53-10.71,61.81-17.51,16.52-5.54,31.7-14,39.54-32.59,3.15,7.46,2.77,14,1.37,20.4-3.25,14.89-14.32,23.05-27.33,27.48-25.2,8.6-50.83,16-76.44,23.34-30.33,8.69-60.9,16.55-91.24,25.23a101.21,101.21,0,0,0-38.6,21.07c-3.81,3.3-6.75,7.59-10.08,11.43Z"/><path class="cls-1" d="M44.6,214.68c-3.43-5.57-2.21-13.16,2-19.1,7.28-10.23,17.92-15.72,29.21-19.1,21.59-6.46,43.52-11.81,65.39-17.3,30.12-7.56,60.91-12.72,89.93-24.25,12.29-4.89,22.92-12.25,29.21-24.53A21.28,21.28,0,0,1,262,108c4.91,8.83,1.16,22.21-5.68,29.76-9.61,10.61-22.29,15.67-35.49,19.3-24.6,6.75-49.39,12.81-74.08,19.21-21.68,5.63-43.45,10.93-65,17.13C67.87,197.43,54.79,203.63,44.6,214.68Z"/><path class="cls-1" d="M21.13,292.92C25.57,272,36,256,54.93,245.58c16.82-9.22,35-14.07,54.25-19.67-1.34,6-2.37,11.05-3.6,16-2.9,11.75-6,23.44-8.81,35.2-1,4-2.88,5.3-7.08,5.72-14.06,1.41-28.08,3.34-42.07,5.37C38.73,289.53,29.92,291.35,21.13,292.92Z"/><path class="cls-1" d="M593.79,37.46V155.55c0,68.34-36.65,94.52-95,94.52s-95.05-26.18-95.05-94.52V37.46h52.37v105c0,44.77,16.76,61.79,42.68,61.79s42.68-17,42.68-61.79v-105Z"/><path class="cls-1" d="M822.91,113.39c0,58.13-47.13,74.1-95.31,74.1H685.44v59.44H633.08V37.46H725C770.54,37.46,822.91,51.07,822.91,113.39Zm-52.89.26c0-17.54-11.26-29.06-39.8-29.06H685.44v55.77h44.78C758.76,140.36,770,129.1,770,113.65Z"/><path class="cls-1" d="M938.13,214.72c23.56,0,46.34-6.8,66.24-13.87v37.44c-13.09,7.07-39,11.26-66.51,11.26-63.36,0-96.35-25.92-96.35-71.75,0-46.08,32.73-74.88,83.26-74.88,57.08,0,85.36,33.25,85.36,85.09h-115C899.37,202.94,911.16,214.72,938.13,214.72Zm-44-49h65.2c-2.62-17.28-12.84-24.87-34.57-24.87C907.23,141.41,896.76,149.52,894.14,165.76Z"/><path class="cls-1" d="M1226.41,37.46V155.55c0,68.34-36.66,94.52-95,94.52s-95-26.18-95-94.52V37.46h52.37v105c0,44.77,16.75,61.79,42.68,61.79s42.67-17,42.67-61.79v-105Z"/><path class="cls-1" d="M434.93,280.66v23.83c0,9,4,12.85,9.38,12.85,6,0,9.79-3.95,9.79-12.85V280.66h5.26v23.47c0,12.37-6.51,17.45-15.23,17.45-8.25,0-14.46-4.72-14.46-17.21V280.66Z"/><path class="cls-1" d="M468.38,320.92V280.66h5.67L487,301a113.49,113.49,0,0,1,7.23,13.08l.12-.06c-.48-5.38-.6-10.27-.6-16.54V280.66h4.9v40.26h-5.26l-12.78-20.43A128.94,128.94,0,0,1,473,287.05l-.18.06c.3,5.08.41,9.92.41,16.61v17.2Z"/><path class="cls-1" d="M512.88,280.66v40.26h-5.2V280.66Z"/><path class="cls-1" d="M530.8,320.92l-13.14-40.26h5.61l6.27,19.83c1.73,5.44,3.23,10.33,4.3,15.05H534c1.14-4.66,2.81-9.73,4.6-15l6.81-19.89h5.56l-14.4,40.26Z"/><path class="cls-1" d="M576.13,302.05H560.48v14.51h17.44v4.36H555.29V280.66H577V285H560.48v12.72h15.65Z"/><path class="cls-1" d="M584.67,281.2a53.91,53.91,0,0,1,10-.84c5.55,0,9.14,1,11.64,3.29a10,10,0,0,1,3.17,7.64,10.59,10.59,0,0,1-7.58,10.28v.18c3.1,1.07,5,3.94,5.91,8.12,1.31,5.61,2.27,9.5,3.1,11.05h-5.37c-.66-1.14-1.55-4.6-2.69-9.62-1.19-5.55-3.34-7.64-8.06-7.82h-4.9v17.44h-5.2Zm5.2,18.34h5.31c5.56,0,9.08-3.05,9.08-7.65,0-5.2-3.76-7.47-9.26-7.53a21.3,21.3,0,0,0-5.13.48Z"/><path class="cls-1" d="M616.09,314.59a18.44,18.44,0,0,0,9.32,2.63c5.31,0,8.42-2.81,8.42-6.87,0-3.77-2.15-5.92-7.59-8-6.57-2.33-10.63-5.73-10.63-11.4,0-6.28,5.2-10.94,13-10.94a18.22,18.22,0,0,1,8.9,2l-1.43,4.24a16,16,0,0,0-7.65-1.92c-5.49,0-7.58,3.29-7.58,6,0,3.76,2.45,5.61,8,7.76,6.81,2.63,10.27,5.92,10.27,11.83,0,6.21-4.59,11.59-14.09,11.59-3.88,0-8.13-1.14-10.28-2.57Z"/><path class="cls-1" d="M651.45,280.66v40.26h-5.2V280.66Z"/><path class="cls-1" d="M660.53,281.2a74.17,74.17,0,0,1,11.05-.84c7.47,0,12.78,1.73,16.31,5s5.67,7.94,5.67,14.46-2,11.94-5.79,15.64-10,5.8-17.8,5.8a83.49,83.49,0,0,1-9.44-.48Zm5.2,35.6a32.56,32.56,0,0,0,5.25.3c11.11,0,17.14-6.22,17.14-17.09.06-9.49-5.31-15.53-16.3-15.53a29.33,29.33,0,0,0-6.09.54Z"/><path class="cls-1" d="M706,308.26l-4.18,12.66h-5.37l13.68-40.26h6.27l13.74,40.26h-5.56l-4.3-12.66Zm13.21-4.06-4-11.59c-.89-2.63-1.49-5-2.09-7.35H713c-.59,2.39-1.25,4.84-2,7.29l-3.94,11.65Z"/><path class="cls-1" d="M736,281.2a74.06,74.06,0,0,1,11.05-.84c7.46,0,12.78,1.73,16.31,5s5.67,7.94,5.67,14.46-2,11.94-5.8,15.64-10,5.8-17.79,5.8a83.49,83.49,0,0,1-9.44-.48Zm5.2,35.6a32.56,32.56,0,0,0,5.25.3c11.11,0,17.14-6.22,17.14-17.09.06-9.49-5.31-15.53-16.3-15.53a29.33,29.33,0,0,0-6.09.54Z"/><path class="cls-1" d="M788.47,281.14a59.92,59.92,0,0,1,10-.78c5.14,0,8.9,1.2,11.29,3.35a10.83,10.83,0,0,1,3.53,8.42,11.86,11.86,0,0,1-3.11,8.6c-2.75,2.93-7.22,4.42-12.3,4.42a17.74,17.74,0,0,1-4.18-.36v16.13h-5.2Zm5.2,19.41a17.28,17.28,0,0,0,4.3.42c6.27,0,10.09-3.05,10.09-8.6,0-5.32-3.76-7.89-9.49-7.89a21.63,21.63,0,0,0-4.9.42Z"/><path class="cls-1" d="M841.09,302.05H825.44v14.51h17.44v4.36H820.25V280.66H842V285H825.44v12.72h15.65Z"/><path class="cls-1" d="M849.63,281.2a53.91,53.91,0,0,1,10-.84c5.55,0,9.14,1,11.64,3.29a10,10,0,0,1,3.17,7.64,10.59,10.59,0,0,1-7.58,10.28v.18c3.1,1.07,4.95,3.94,5.91,8.12,1.31,5.61,2.27,9.5,3.1,11.05h-5.37c-.66-1.14-1.56-4.6-2.69-9.62-1.19-5.55-3.34-7.64-8.06-7.82h-4.9v17.44h-5.2Zm5.2,18.34h5.31c5.56,0,9.08-3.05,9.08-7.65,0-5.2-3.76-7.47-9.26-7.53a21.23,21.23,0,0,0-5.13.48Z"/><path class="cls-1" d="M887,280.66v23.83c0,9,4,12.85,9.38,12.85,6,0,9.8-3.95,9.8-12.85V280.66h5.25v23.47c0,12.37-6.51,17.45-15.23,17.45-8.24,0-14.45-4.72-14.45-17.21V280.66Z"/><path class="cls-1" d="M924.89,308.26l-4.18,12.66h-5.38L929,280.66h6.27L949,320.92h-5.55l-4.3-12.66Zm13.2-4.06-3.94-11.59c-.9-2.63-1.49-5-2.09-7.35h-.12c-.6,2.39-1.26,4.84-2,7.29L926,304.2Z"/><path class="cls-1" d="M954.93,320.92V280.66h5.68L973.51,301a113.49,113.49,0,0,1,7.23,13.08l.12-.06c-.48-5.38-.6-10.27-.6-16.54V280.66h4.9v40.26H979.9l-12.78-20.43a127.27,127.27,0,0,1-7.53-13.44l-.18.06c.3,5.08.42,9.92.42,16.61v17.2Z"/><path class="cls-1" d="M1000.75,308.26l-4.18,12.66h-5.38l13.68-40.26h6.27l13.74,40.26h-5.56l-4.3-12.66Zm13.2-4.06-4-11.59c-.89-2.63-1.49-5-2.09-7.35h-.11c-.6,2.39-1.26,4.84-2,7.29l-3.94,11.65Z"/><path class="cls-1" d="M1048.65,280.66v23.83c0,9,4,12.85,9.38,12.85,6,0,9.79-3.95,9.79-12.85V280.66h5.26v23.47c0,12.37-6.51,17.45-15.23,17.45-8.25,0-14.46-4.72-14.46-17.21V280.66Z"/><path class="cls-1" d="M1082.1,320.92V280.66h5.67l12.9,20.37a113.49,113.49,0,0,1,7.23,13.08l.12-.06c-.48-5.38-.6-10.27-.6-16.54V280.66h4.9v40.26h-5.26l-12.78-20.43a128.94,128.94,0,0,1-7.52-13.44l-.18.06c.3,5.08.41,9.92.41,16.61v17.2Z"/><path class="cls-1" d="M1126.6,280.66v40.26h-5.2V280.66Z"/><path class="cls-1" d="M1170.08,300.37c0,13.86-8.42,21.21-18.69,21.21-10.64,0-18.1-8.25-18.1-20.43,0-12.78,7.94-21.15,18.69-21.15C1163,280,1170.08,288.43,1170.08,300.37Zm-31.24.66c0,8.6,4.66,16.31,12.84,16.31s12.91-7.59,12.91-16.73c0-8-4.19-16.37-12.85-16.37S1138.84,292.19,1138.84,301Zm21.56-29.63-7.58,6.93h-4.3l5.55-6.93Z"/><path class="cls-1" d="M1176.83,320.92V280.66h5.68l12.9,20.37a114.84,114.84,0,0,1,7.22,13.08l.12-.06c-.47-5.38-.59-10.27-.59-16.54V280.66h4.89v40.26h-5.25L1189,300.49a127.27,127.27,0,0,1-7.53-13.44l-.18.06c.3,5.08.42,9.92.42,16.61v17.2Z"/><rect class="cls-2" x="332.26" y="33.27" width="14.36" height="288.31" transform="translate(678.88 354.84) rotate(180)"/></svg>