<?xml version="1.0" encoding="utf-8"?>

<!DOCTYPE svg PUBLIC "-//W3C//DTD SVG 1.1//EN" "http://www.w3.org/Graphics/SVG/1.1/DTD/svg11.dtd">
<svg version="1.1" id="Layer_1" xmlns="http://www.w3.org/2000/svg" xmlns:xlink="http://www.w3.org/1999/xlink" x="0px" y="0px"
	 width="100px" height="100px" viewBox="0 0 100 100" enable-background="new 0 0 100 100" xml:space="preserve">
<g>
	<path d="M24.5,51.547V71.91c-4,0.302-8,3.587-8,7.736v2.234c0,1.104,1.396,1.619,2.5,1.619h62c1.104,0,1.5-0.515,1.5-1.619v-2.234
		c0-4.177-2-7.286-7-7.711V51.547c0-10.752-6.771-19.956-16.295-23.635c0.184-0.302,0.295-0.652,0.295-1.031v-1.283
		c0-4.97-3.145-9.098-7.979-9.098H50.38c-5.084,0-9.88,4.373-9.88,9.098v1.283c0,0.379,0.111,0.729,0.295,1.031
		C31.271,31.591,24.5,40.795,24.5,51.547z M44.5,25.598c0-2.513,3.014-5.098,5.88-5.098h1.142c2.595,0,3.979,2.364,3.979,5.098
		v1.199c-1-0.39-3.611-0.601-5.5-0.601s-3.5,0.211-5.5,0.601V25.598z M50,30.196c11.855,0,21.5,9.578,21.5,21.351v22.334
		c0,1.104,1.396,1.619,2.5,1.619h1.028c2.45,0,3.472,1.824,3.472,4.146V79.5h-58v0.146c0-2.357,2.878-4.146,5.178-4.146H27
		c1.104,0,1.5-0.515,1.5-1.619V51.547C28.5,39.774,38.145,30.196,50,30.196z"/>
</g>
</svg>
